HIERARCHY
ROOT Hips
{
  OFFSET -35.2597 29.1586 114.425
  CHANNELS 6 Xposition Yposition Zposition Zrotation Xrotation Yrotation
  JOINT LeftUpLeg
  {
    OFFSET 8.64259 1.95398 -2.38835
    CHANNELS 3 Zrotation Xrotation Yrotation
    JOINT LeftLeg
    {
      OFFSET 43.7702 0 0
      CHANNELS 3 Zrotation Xrotation Yrotation
      JOINT LeftFoot
      {
        OFFSET 40.6238 0 0
        CHANNELS 3 Zrotation Xrotation Yrotation
        JOINT LeftToeBase
        {
          OFFSET 12.7242 0 0
          CHANNELS 3 Zrotation Xrotation Yrotation
          End Site
          {
            OFFSET 0 0 0
          }
        }
      }
    }
  }
  JOINT RightUpLeg
  {
    OFFSET -8.2249 1.95398 -2.59336
    CHANNELS 3 Zrotation Xrotation Yrotation
    JOINT RightLeg
    {
      OFFSET 43.5653 0 0
      CHANNELS 3 Zrotation Xrotation Yrotation
      JOINT RightFoot
      {
        OFFSET 40.6238 0 0
        CHANNELS 3 Zrotation Xrotation Yrotation
        JOINT RightToeBase
        {
          OFFSET 12.7242 0 0
          CHANNELS 3 Zrotation Xrotation Yrotation
          End Site
          {
            OFFSET 0 0 0
          }
        }
      }
    }
  }
  JOINT Spine
  {
    OFFSET 0.165834 0.87714 6.61349
    CHANNELS 3 Zrotation Xrotation Yrotation
    JOINT Spine1
    {
      OFFSET 7.38963 1.71661e-005 0
      CHANNELS 3 Zrotation Xrotation Yrotation
      JOINT Spine2
      {
        OFFSET 11.9445 1.14441e-005 0
        CHANNELS 3 Zrotation Xrotation Yrotation
        JOINT Spine3
        {
          OFFSET 14.7254 4.19617e-005 0
          CHANNELS 3 Zrotation Xrotation Yrotation
          JOINT Spine4
          {
            OFFSET 10.9679 0 0
            CHANNELS 3 Zrotation Xrotation Yrotation
            JOINT RightShoulder
            {
              OFFSET 2.46616 -1.6653 3.69651
              CHANNELS 3 Zrotation Xrotation Yrotation
              JOINT RightArm
              {
                OFFSET 13.0012 0 0
                CHANNELS 3 Zrotation Xrotation Yrotation
                JOINT RightForeArm
                {
                  OFFSET 28.7848 1.62311e-005 0
                  CHANNELS 3 Zrotation Xrotation Yrotation
                  JOINT RightHand
                  {
                    OFFSET 26.5688 1.62095e-005 0
                    CHANNELS 3 Zrotation Xrotation Yrotation
                    End Site
                    {
                      OFFSET 0 0 0
                    }
                  }
                }
              }
            }
            JOINT LeftShoulder
            {
              OFFSET 2.38034 -1.29275 -3.7523
              CHANNELS 3 Zrotation Xrotation Yrotation
              JOINT LeftArm
              {
                OFFSET 16.3182 6.07031e-005 0
                CHANNELS 3 Zrotation Xrotation Yrotation
                JOINT LeftForeArm
                {
                  OFFSET 27.0901 0 0
                  CHANNELS 3 Zrotation Xrotation Yrotation
                  JOINT LeftHand
                  {
                    OFFSET 24.5451 1.51738e-005 0
                    CHANNELS 3 Zrotation Xrotation Yrotation
                    End Site
                    {
                      OFFSET 0 0 0
                    }
                  }
                }
              }
            }
            JOINT Neck
            {
              OFFSET 5.0226 -0.0266342 0
              CHANNELS 3 Zrotation Xrotation Yrotation
              JOINT Head
              {
                OFFSET 6.69364 2.86102e-005 0
                CHANNELS 3 Zrotation Xrotation Yrotation
                End Site
                {
                  OFFSET 0 0 0
                }
              }
            }
          }
        }
      }
    }
  }
}
MOTION
Frames:	9
Frame Time:	0.0416667
86.7273 92.5861 106.763 -89.8051 46.3635 -87.5286 -170.002 13.1957 88.8836 -45.2485 16.8847 -2.50264 88.8346 21.1656 -0.458954 27.2843 -0.700799 -0.0716733 178.433 23.2071 90.0272 -77.7599 -5.48329 -4.57777 70.5548 -6.93522 -5.55025 9.29912 4.58096 8.25706 -0.352498 8.2563 -90.5629 10.3611 -0.959855 -1.03275 -1.30983 -1.00438 -0.989515 -23.8436 -0.605112 -1.27344 -3.83097 -0.60513 -1.27345 91.2241 -34.8091 -102.751 28.5438 12.2621 45.6531 -60.0982 -6.54242 -88.293 -49.4125 16.8989 -41.4049 -86.7431 -57.0571 84.6738 -20.009 -19.0996 19.7485 51.5237 -11.5447 -100.629 4.74977 -3.84912 -59.1898 19.0029 5.88773 -4.66761 0.674519 7.1065 4.02551 
93.041 93.2599 113.386 -94.2568 48.5632 -85.9771 -170.195 17.7943 87.4602 -46.5058 16.154 -3.3673 82.4693 16.2572 0.905621 23.8077 -1.92429 -1.09526 177.795 6.80531 86.4039 -71.5607 -10.6136 -6.33984 64.7908 -3.29426 -4.53155 12.3978 2.92129 9.31502 0.48345 8.24757 -90.3267 10.3784 0.81363 -0.719919 -1.29253 0.78117 -0.755035 -23.8286 0.992351 -0.442097 -3.81593 0.99237 -0.442091 90.1074 -33.3039 -105.362 27.5746 12.9315 40.1009 -58.4513 -2.64833 -91.0095 -49.8119 16.6355 -40.5671 -85.6764 -59.9023 86.4948 -18.5028 -23.1753 39.4464 58.8261 -13.2962 -99.7151 -0.15379 -1.31412 -62.2466 12.2255 3.15492 -2.46485 2.69047 3.73766 1.83274 
99.5962 94.5246 119.977 -96.0737 51.1837 -86.5695 -170.761 21.2097 85.9486 -41.3697 15.3099 -4.6521 73.1563 9.28796 2.16146 21.1147 -1.95707 -3.39132 176.765 -4.99473 83.9033 -59.9058 -20.2369 -9.25026 60.8707 -0.569674 -1.75476 15.9709 1.91524 8.67464 1.41017 8.15362 -90.0558 10.5735 2.78305 -0.361046 -1.09455 2.76447 -0.483283 -23.6533 2.76279 0.492728 -3.64061 2.7628 0.492729 90.5354 -29.4305 -105.907 29.3099 8.0088 35.2016 -46.7252 0.191576 -93.0799 -52.1893 16.28 -38.1266 -84.4657 -57.9258 87.9353 -16.1099 -25.845 55.8179 55.7591 -13.973 -101.089 -5.41487 1.82438 -68.7337 8.41792 0.36978 -2.25673 3.067 0.850254 0.379273 
107.1 95.0954 127.041 -93.0547 52.5169 -89.7995 -171.328 26.7646 86.4734 -33.2325 20.5312 -6.01159 63.8375 2.35743 2.31402 19.8421 -3.53677 -1.6545 176.391 -9.83308 84.0925 -49.4486 -31.1922 -11.1988 60.2618 -0.468538 -2.08459 19.6881 0.288748 9.50658 2.00879 8.02395 -89.8948 10.8345 4.04827 -0.169615 -0.830117 4.03686 -0.34793 -23.414 3.91178 1.05683 -3.40129 3.91176 1.05682 92.6512 -24.1087 -103.45 28.8408 6.02804 31.2029 -44.1861 3.56797 -97.0006 -53.6075 16.6703 -37.9004 -85.2083 -54.1726 86.4586 -14.5433 -28.4346 68.0793 55.7103 -18.3453 -103.997 -5.87667 2.20241 -71.5197 9.35348 -1.68413 -2.36687 1.60967 -1.11665 0.174352 
115.638 93.6327 134.646 -87.1218 52.001 -94.1242 -170.467 36.0164 87.8077 -35.885 30.334 -7.12831 65.8392 3.86966 0.502176 20.3224 -7.88948 5.81856 177.613 -8.48221 87.2783 -39.8039 -27.9952 -9.2828 65.9069 -4.88878 -3.68639 33.2223 -4.45745 10.4553 1.89545 7.7874 -89.832 11.3043 3.85027 -0.0453234 -0.360906 3.84455 -0.215 -22.9391 3.68564 1.11554 -2.9265 3.68563 1.11554 93.387 -21.8717 -102.616 27.8472 4.91193 30.3034 -34.27 6.10282 -103.158 -55.0835 18.6026 -40.4071 -86.2521 -51.1546 84.5287 -15.2311 -27.1621 75.5506 54.6607 -22.5253 -107.191 -2.9405 0.314836 -72.9256 13.251 -1.57136 -2.37634 -0.787437 -0.924583 0.564155 
124.701 90.8302 142.603 -88.8896 50.5332 -91.5978 -165.154 42.7687 87.7203 -56.4503 26.5621 -6.08187 73.4471 9.44928 2.03982 20.095 -6.49358 3.34687 178.295 -4.54553 90.8045 -41.6085 -15.8992 -6.90981 81.071 -15.6796 -3.73353 46.6504 -7.82221 5.02711 1.38176 8.0429 -90.1009 10.7937 2.70488 -0.450875 -0.874528 2.68241 -0.569579 -23.432 2.71524 0.383507 -3.41939 2.71522 0.383502 93.7502 -22.5717 -101.536 27.1321 3.54289 29.2876 -30.5493 7.28926 -107.124 -57.9303 21.2297 -42.9835 -86.0527 -53.4982 85.1528 -17.1988 -24.1484 70.4263 55.117 -23.7512 -107.714 -2.60505 0.0702262 -74.1088 15.4124 0.234825 -1.67645 0.475063 0.707864 1.67561 
132.504 89.0822 149.954 -93.6989 47.4896 -83.1308 -165.714 44.1169 92.3722 -76.4621 20.9058 -0.843297 76.9073 11.3991 1.80233 20.8781 -6.61707 4.3023 177.212 1.65931 95.1972 -49.2855 -9.98216 -2.97014 89.7907 -20.5105 0.619863 37.3648 -4.76759 5.99157 0.643835 8.53673 -90.7331 9.80467 0.951299 -1.53019 -1.86687 0.883045 -1.57057 -24.4001 1.36718 -1.17359 -4.38747 1.36716 -1.1736 92.3493 -27.2634 -102.971 27.2772 5.20828 32.8914 -36.2288 8.55155 -106.079 -59.0952 21.3385 -42.3359 -84.9439 -58.5353 87.3416 -19.4154 -18.5749 53.1521 55.346 -18.6782 -104.371 -2.32891 -0.117609 -68.2045 18.4525 2.5787 -3.1306 0.0559877 3.44249 2.88641 
137.943 89.2002 155.153 -95.0649 44.4568 -81.0382 -169.222 38.1045 96.1663 -85.5276 21.9775 2.02408 71.2504 8.23095 5.87054 23.6386 -1.27307 -2.4193 174.664 7.44639 95.7489 -53.1834 -12.8641 -0.53361 87.8813 -20.1286 -1.63052 36.7437 -4.54688 5.85882 0.141477 8.65701 -90.9406 9.55413 -0.141946 -1.85317 -2.1181 -0.22336 -1.84515 -24.6431 0.421483 -1.8102 -4.63042 0.421464 -1.81021 90.8453 -29.7558 -105.178 30.3285 2.71684 40.6071 -33.9087 2.57864 -100.405 -55.1809 20.0331 -43.0044 -85.9281 -60.6065 86.244 -21.1485 -10.8075 31.1634 55.1895 -12.7764 -100.445 -1.52806 -0.528784 -63.1582 15.9913 3.81374 -1.83637 2.24424 4.20807 0.975506 
142.242 89.8151 159.854 -97.2234 44.0212 -80.107 -170.554 25.5445 98.567 -85.0434 20.9583 3.1716 69.1299 6.78765 5.68515 26.3375 -1.36244 0.322182 174.773 10.7383 95.3682 -53.8699 -12.6736 -0.641664 87.2837 -19.6324 -2.32459 31.8382 -3.26818 7.86865 -0.0892222 8.52483 -90.7364 9.81923 -0.511514 -1.41967 -1.85236 -0.573478 -1.39578 -24.3815 -0.061242 -1.50774 -4.36879 -0.0612345 -1.50774 90.7479 -32.6449 -104.352 35.6431 1.35939 42.5046 -34.7411 -0.744443 -85.4137 -46.4682 17.2305 -44.4787 -86.0021 -58.1726 85.8434 -21.6216 -4.16301 15.8865 49.643 -8.47963 -98.5709 1.96642 -2.43124 -60.5124 11.6885 4.19628 -4.59701 1.84896 5.22525 2.5703 
